<?xml version="1.0" encoding="UTF-8" standalone="no"?><!DOCTYPE svg PUBLIC "-//W3C//DTD SVG 1.1//EN" "http://www.w3.org/Graphics/SVG/1.1/DTD/svg11.dtd"><svg width="100%" height="100%" viewBox="0 0 3154 1977" version="1.1" xmlns="http://www.w3.org/2000/svg" xmlns:xlink="http://www.w3.org/1999/xlink" xml:space="preserve" xmlns:serif="http://www.serif.com/" style="fill-rule:evenodd;clip-rule:evenodd;stroke-linejoin:round;stroke-miterlimit:2;"><g id="background-logo"></g><g id="logo-logo"><g><g><path d="M1870.34,676.331l129.314,117.154l0,107.526l-34.542,-31.295l-0,-27.951l-94.772,-85.86l0,-79.574Zm94.768,30.232l34.551,31.303l0,-107.548l-56.094,-50.82l-73.231,0l-0,10.089l6.209,5.626l88.565,80.236l-0,31.114Zm34.546,240.587l-129.314,-117.154l0,76.431l94.772,85.859l-0,31.094l34.542,31.295l0,-107.525Zm-129.314,112.941l94.772,85.86l-0,31.094l34.542,31.295l0,-107.525l-129.314,-117.155l0,76.431Zm-302.368,1.958c-10.465,21.196 -16.379,41.307 0,56.1l54.95,49.814l0,-56.446l-54.95,-49.468Zm0,83.977c-9.484,19.61 -10.515,38.409 0,56.099l54.95,49.814l0,-56.445l-54.95,-49.468Zm0,187.156c-11.93,15.461 -8.109,35.197 0,56.099l54.95,-49.468l0,-56.445l-54.95,49.814Zm31.326,-496.914l-0,-154.596l62.026,-56.162l134.634,-0l-0,-46.012l45.756,0l0,46.012l0.278,-0l-0,41.045l-0.278,-0l0,385.594l-68.791,62.291l0,-94.662l-117.531,-106.479l-38.645,-0l-24.526,22.22l116.768,105.788l-0,131.59l-59.251,53.711l-0,-127.222l-81.766,-74.077c-5.876,-61.745 -19.309,-134.036 0,-160.63l31.326,-28.411Zm59.078,26.494c-0,0 16.235,0 16.235,0l62.859,56.98l-0,-82.406l51.411,-46.545l7.077,-6.411l-0,-117.417l-66.155,59.934l-38.68,0l-32.747,-29.699l-0,165.564Zm-90.404,567.816c-22.207,20.523 -13.654,50.318 0,81.651l160.374,-145.262l0,-80.268l167.52,-151.767l-42.218,-38.249l-203.91,184.736l-0,75.114l-81.766,74.045Zm0,-195.39c-13.39,21.623 -13.39,43.245 0,64.868l0.105,0.094l35.904,-32.528l-35.904,-32.528l-0.105,0.094Zm0,-1062.91l171.753,155.602l203.84,-184.673l0,316.452l-205.991,0l24.803,22.471l-14.986,13.577l196.174,0l0,49.563l-250.881,-0l-124.712,112.985c-13.169,-27.376 -22.743,-53.631 0,-69.803l47.665,-43.182l54.672,-49.563l14.986,-13.577l-24.803,-22.471l-54.672,-49.531l-37.848,-34.288c-12.35,-21.637 -10.819,-45.106 0,-69.803l114.93,104.091l60.049,-0l-174.979,-158.556c-12.265,-20.988 -10.883,-48.033 0,-79.294l0,0Zm231.698,209.91l62.408,-56.571l-0,84.511l26.815,-0l0,-147.336l-110.523,100.099l21.3,19.297Zm-231.698,52.863c-16.298,31.034 -16.298,62.43 0,94.191l52.001,-47.112l-6.66,-6.002l-45.341,-41.077Zm476.646,10.057l0,93.593c42.322,69.928 66.363,150.196 66.363,235.556c-0,85.359 -24.041,165.659 -66.363,235.587l0,93.562c77.082,-91.268 122.873,-205.353 122.873,-329.149c0,-123.797 -45.791,-237.881 -122.873,-329.149Z" style="fill:#684d1e;fill-rule:nonzero;"/></g><g><path d="M1265.61,755.905l-94.772,85.86l0,27.951l-34.542,31.295l-0,-107.526l129.314,-117.154l-0,79.574Zm-94.768,-80.456l88.565,-80.236l6.209,-5.626l0,-10.089l-73.231,0l-56.094,50.82l-0,107.548l34.551,-31.303l-0,-31.114Zm-34.546,379.226l34.542,-31.295l0,-31.094l94.772,-85.859l-0,-76.431l-129.314,117.154l-0,107.525Zm129.314,-71.015l-129.314,117.155l-0,107.525l34.542,-31.295l0,-31.094l94.772,-85.86l-0,-76.431Zm247.418,127.857l-0,56.446l54.949,-49.814l0,-56.1l-54.949,49.468Zm-0,83.977l-0,56.445l54.949,-49.814l0,-56.099l-54.949,49.468Zm-0,87.874l-0,56.445l54.949,49.468l0,-56.099l-54.949,-49.814Zm54.949,-418.689l0,160.63l-81.765,74.077l0,127.222l-59.251,-53.711l0,-131.59l116.768,-105.788l-24.526,-22.22l-38.645,-0l-117.531,106.479l-0,94.662l-68.791,-62.291l-0,-385.594l-0.278,-0l0,-41.045l0.278,-0l-0,-46.012l45.756,0l0,46.012l134.634,-0l62.026,56.162l-0,154.596l31.325,28.411Zm-90.403,-167.481c0,-0 -32.747,29.699 -32.747,29.699l-38.68,0l-66.155,-59.934l0,117.417l7.077,6.411l51.411,46.545l0,82.406l62.859,-56.98l16.235,0l0,-165.564Zm8.638,659.335l0,-75.114l-203.91,-184.736l-42.218,38.249l167.52,151.767l-0,80.268l160.373,145.262l0,-81.651l-81.765,-74.045Zm81.661,-121.439l-35.904,32.528l35.904,32.528l0.104,-0.094l0,-64.868l-0.104,-0.094Zm0.104,-983.519l-174.978,158.556l60.049,-0l114.929,-104.091l0,69.803l-37.847,34.288l-54.672,49.531l-24.803,22.471l14.986,13.577l54.672,49.563l47.664,43.182l0,69.803l-124.711,-112.985l-250.881,-0l-0,-49.563l196.174,0l-14.986,-13.577l24.803,-22.471l-205.991,0l-0,-316.452l203.84,184.673l171.752,-155.602l0,79.294l0,-0Zm-210.397,111.319l-110.523,-100.099l-0,147.336l26.815,-0l0,-84.511l62.408,56.571l21.3,-19.297Zm165.057,113.237l-6.66,6.002l52,47.112l0,-94.191l-45.34,41.077Zm-552.097,298.129c-0,-122.665 44.959,-235.838 120.792,-326.666l-0,94.599c-41.004,69.111 -64.281,148.122 -64.281,232.067c-0,83.945 23.277,162.987 64.281,232.098l-0,94.568c-75.833,-90.828 -120.792,-204.001 -120.792,-326.666l-0,-0Z" style="fill:#c5b08b;fill-rule:nonzero;"/></g></g></g><g id="text-logo"><g><g id="text-logo-path-0"><path d="M69.001,1814.42l-69.001,-0l0,158.815l74.445,0c26.255,0 44.667,-16.57 44.667,-42.905c-0,-19.052 -9.766,-33.06 -25.216,-39.224c11.367,-7.044 18.411,-19.292 18.411,-35.141c0,-25.616 -17.69,-41.545 -43.306,-41.545Zm-8.164,63.958l-24.495,0l-0,-29.938l24.495,0c8.805,0 15.209,5.284 15.209,14.809c-0,9.686 -6.404,15.129 -15.209,15.129Zm7.044,60.837l-31.539,-0l-0,-29.298l31.539,0c8.565,0 14.969,5.444 14.969,14.809c-0,9.286 -6.404,14.489 -14.969,14.489Zm191.875,-124.795l-38.583,-0l-54.433,158.815l38.583,0l11.127,-34.02l48.109,-0l11.047,34.02l38.583,0l-54.433,-158.815Zm-6.564,90.774l-25.455,0l12.727,-39.063l12.728,39.063Zm185.552,71.643c26.575,0 48.749,-9.925 63.558,-27.216l-27.297,-23.534c-8.325,10.646 -21.052,16.73 -36.261,16.73c-27.457,0 -46.749,-20.172 -46.749,-48.989c0,-28.818 19.292,-48.99 46.749,-48.99c13.127,0 24.494,4.803 32.899,12.728l23.775,-26.576c-14.489,-12.888 -34.021,-20.172 -56.674,-20.172c-48.75,-0 -83.01,33.78 -83.01,82.769c-0,48.99 34.26,83.25 83.01,83.25Zm155.133,-162.417l-36.262,-0l-0,158.815l36.262,0l-0,-41.064l11.847,-14.729l42.665,55.793l45.308,0l-66.2,-83.73l59.396,-75.085l-43.066,-0l-49.95,66.92l-0,-66.92Zm221.653,-0l-68.922,-0l0,158.815l74.365,0c26.336,0 44.667,-16.57 44.667,-42.905c-0,-19.052 -9.686,-33.06 -25.135,-39.224c11.367,-7.044 18.331,-19.292 18.331,-35.141c-0,-25.616 -17.691,-41.545 -43.306,-41.545Zm-8.165,63.958l-24.495,0l0,-29.938l24.495,0c8.885,0 15.209,5.284 15.209,14.809c0,9.686 -6.324,15.129 -15.209,15.129Zm7.044,60.837l-31.539,-0l0,-29.298l31.539,0c8.645,0 14.969,5.444 14.969,14.809c0,9.286 -6.324,14.489 -14.969,14.489Zm225.736,-124.795l-114.149,-0l0,158.815l114.149,0l-0,-34.02l-77.807,-0l-0,-31.779l64.199,-0l-0,-34.021l-64.199,0l-0,-24.975l77.807,0l-0,-34.02Zm100.06,-0l-38.583,-0l-0,158.815l36.261,0l0,-97.738l61.237,97.738l38.583,0l0,-158.815l-36.261,-0l-0,97.819l-61.237,-97.819Zm240.384,162.417c26.576,0 48.83,-9.925 63.558,-27.216l-27.216,-23.534c-8.405,10.646 -21.133,16.73 -36.342,16.73c-27.376,0 -46.668,-20.172 -46.668,-48.989c0,-28.818 19.292,-48.99 46.668,-48.99c13.208,0 24.575,4.803 32.9,12.728l23.854,-26.576c-14.488,-12.888 -34.02,-20.172 -56.754,-20.172c-48.749,-0 -83.01,33.78 -83.01,82.769c0,48.99 34.261,83.25 83.01,83.25Zm155.454,-162.417l-36.342,-0l-0,158.815l36.342,0l-0,-63.478l63.478,0l-0,63.478l36.342,0l-0,-158.815l-36.342,-0l-0,61.237l-63.478,-0l-0,-61.237Zm357.975,162.417c26.495,0 48.749,-9.925 63.478,-27.216l-27.217,-23.534c-8.405,10.646 -21.052,16.73 -36.261,16.73c-27.457,0 -46.749,-20.172 -46.749,-48.989c0,-28.818 19.292,-48.99 46.749,-48.99c13.127,0 24.494,4.803 32.899,12.728l23.775,-26.576c-14.489,-12.888 -34.021,-20.172 -56.674,-20.172c-48.83,-0 -83.09,33.78 -83.09,82.769c-0,48.99 34.26,83.25 83.09,83.25Zm189.393,0c48.99,0 83.01,-34.42 83.01,-83.25c0,-48.749 -34.26,-82.769 -83.01,-82.769c-48.749,-0 -83.01,34.02 -83.01,82.769c0,48.99 34.021,83.25 83.01,83.25Zm0,-34.02c-27.456,0 -46.748,-20.172 -46.748,-48.989c0,-28.818 19.292,-48.99 46.748,-48.99c27.457,0 46.748,20.172 46.748,48.99c0,28.817 -19.291,48.989 -46.748,48.989Zm181.469,-128.397l-38.583,-0l0,158.815l36.342,0l-0,-75.965l34.02,75.965l40.825,0l34.02,-75.965l0,75.965l36.262,0l0,-158.815l-38.503,-0l-52.191,118.231l-52.192,-118.231Zm279.048,-0l-69.642,-0l0,158.815l36.262,0l-0,-58.035l33.38,0c31.059,0 52.591,-19.291 52.591,-50.43c0,-30.818 -21.532,-50.35 -52.591,-50.35Zm16.33,50.35c-0,10.486 -7.045,16.33 -16.81,16.33l-32.9,-0l-0,-32.66l32.9,0c9.765,0 16.81,6.164 16.81,16.33Zm158.975,-50.35l-38.503,-0l-54.433,158.815l38.503,0l11.127,-34.02l48.109,-0l11.127,34.02l38.583,0l-54.513,-158.815Zm-6.564,90.774l-25.375,0l12.728,-39.063l12.647,39.063Zm153.612,-90.774l-38.583,-0l0,158.815l36.262,0l0,-97.738l61.317,97.738l38.503,0l0,-158.815l-36.262,-0l0,97.819l-61.237,-97.819Zm200.041,97.819l-0,60.996l36.341,0l0,-60.996l50.111,-97.819l-40.825,-0l-27.456,59.476l-27.457,-59.476l-40.824,-0l50.11,97.819Z" style="fill:#6c4c1c;fill-rule:nonzero;"/></g></g></g><g id="shape-26a9f2ed-71a3-4850-a4d2-49efcd6e76d8"><g><g id="Layer_1"><path d="M3009.9,14.321c71.032,0 128.889,57.857 128.889,128.889c0,71.032 -57.857,128.889 -128.889,128.889c-71.032,0 -128.889,-57.857 -128.889,-128.889c-0,-71.032 57.857,-128.889 128.889,-128.889m-0,-14.321c-79.052,-0 -143.21,64.158 -143.21,143.21c-0,79.052 64.158,143.21 143.21,143.21c79.052,0 143.21,-64.158 143.21,-143.21c0,-79.052 -64.158,-143.21 -143.21,-143.21Z" style="fill:#725628;fill-rule:nonzero;"/></g><g id="Layer_11" serif:id="Layer_1"><path d="M2947.6,195.625l-0,-79.911l-28.642,-0l-0,-16.326l76.617,-0l-0,16.326l-28.499,-0l0,80.054l-19.476,-0.143Z" style="fill:#725628;fill-rule:nonzero;"/></g><g id="Layer_12" serif:id="Layer_1"><path d="M3007.75,195.625l-0,-96.237l29.071,-0l17.472,65.733l17.329,-65.733l29.214,-0l0,96.237l-18.044,-0l-0,-75.758l-19.047,75.758l-18.761,-0l-19.046,-75.758l-0,75.758l-18.188,-0Z" style="fill:#725628;fill-rule:nonzero;"/></g></g></g></svg>